<?xml version="1.0" encoding="utf-8"?>
<!-- Generator: Adobe Illustrator 27.0.1, SVG Export Plug-In . SVG Version: 6.00 Build 0)  -->
<svg version="1.1" id="Layer_1" xmlns:serif="http://www.serif.com/"
	 xmlns="http://www.w3.org/2000/svg" xmlns:xlink="http://www.w3.org/1999/xlink" x="0px" y="0px" viewBox="0 0 24 24"
	 style="enable-background:new 0 0 24 24;" xml:space="preserve">
<style type="text/css">
	.st0{fill-rule:evenodd;clip-rule:evenodd;fill:none;}
	.st1{fill-rule:evenodd;clip-rule:evenodd;fill:#0A66C2;}
</style>
<rect class="st0" width="24" height="24"/>
<path class="st1" d="M19.6,2C20.9,2,22,3.1,22,4.4v15.1c0,1.3-1.1,2.4-2.4,2.4H4.4C3.1,22,2,20.9,2,19.6V4.4C2,3.1,3.1,2,4.4,2
	C4.4,2,19.6,2,19.6,2z M8.3,18.5V9.7H5.3v8.8H8.3z M18.8,18.5v-5.1c0-2.7-1.4-4-3.4-4c-1.6,0-2.3,0.9-2.6,1.5V9.7H9.9
	c0,0.8,0,8.8,0,8.8h2.9v-4.9c0-0.3,0-0.5,0.1-0.7c0.2-0.5,0.7-1.1,1.5-1.1c1.1,0,1.5,0.8,1.5,2v4.7C15.9,18.5,18.8,18.5,18.8,18.5z
	 M6.8,5.5c-1,0-1.7,0.7-1.7,1.5c0,0.8,0.6,1.5,1.6,1.5h0c1,0,1.7-0.7,1.7-1.5C8.4,6.1,7.8,5.5,6.8,5.5z"/>
</svg>
