<svg xmlns="http://www.w3.org/2000/svg" viewBox="0 0 24 24"><path fill="none" d="M0 0h24v24H0z"/><path fill="#8bc9ae" d="M8.875 21.494v-5.975h6.249v2.444a3.535 3.535 0 01-3.538 3.53H8.875z"/><path fill="#2f2f3a" d="M11.574 22H8.387v-6.987h7.224v2.95A4.042 4.042 0 0111.574 22zm-2.18-1.013h2.18a3.032 3.032 0 003.032-3.024v-1.937H9.393v4.961z"/><path fill="#f2c84a" d="M15.275 15.35V9.014h6.249v2.8a3.54 3.54 0 01-1.032 2.5c-.328.33-.718.59-1.147.768-.43.177-.888.268-1.353.268h-2.717v.002z"/><path fill="#2f2f3a" d="M17.962 15.856h-3.194v-7.35h7.23v3.306a4.042 4.042 0 01-4.037 4.044h.001zm-2.181-1.012h2.181a3.029 3.029 0 003.024-3.03V9.5H15.78v5.343h.001z"/><path fill="#b384b9" d="M15.106 9.012h-6.22v6.337h6.22V9.012z"/><path fill="#2f2f3a" d="M15.612 15.856H8.388v-7.35h7.224v7.35zm-6.25-1.012h5.212V9.501h-5.18l-.032 5.343z"/><path fill="#4bb485" d="M2.506 8.875V6.038a3.532 3.532 0 013.532-3.532h2.687v6.369H2.506z"/><path fill="#2f2f3a" d="M9.232 9.35h-7.23V6.038A4.042 4.042 0 016.037 2h3.194V9.35zm-6.22-1.013H8.25V3.013H6.038a3.022 3.022 0 00-3.025 3.025v2.3z"/><path fill="#ee7375" d="M15.275 8.875V2.506h2.687a3.532 3.532 0 013.532 3.532v2.837h-6.22z"/><path fill="#2f2f3a" d="M21.999 9.35h-7.23V2h3.193A4.042 4.042 0 0122 6.037V9.35zM15.78 8.337h5.206v-2.3a3.022 3.022 0 00-3.025-3.026h-2.18v5.326z"/><path fill="#5e6eb3" d="M15.106 2.506h-6.22v6.338h6.22V2.506z"/><path fill="#2f2f3a" d="M15.612 9.35H8.388V2h7.224v7.35zm-6.25-1.013h5.212V3.013h-5.18l-.032 5.324z"/><path fill="#41bede" d="M2.506 17.962v-2.444h6.25v5.974h-2.72a3.532 3.532 0 01-3.53-3.53z"/><path fill="#2f2f3a" d="M9.232 22H6.038A4.042 4.042 0 012 17.963v-2.95h7.23V22zm-6.22-5.975v1.937a3.022 3.022 0 003.026 3.025H8.25v-4.962H3.013z"/><path fill="#f39a4b" d="M8.725 9.012H2.506v6.337h6.22V9.012z"/><path fill="#2f2f3a" d="M9.232 15.856h-7.23v-7.35h7.23v7.35zm-6.22-1.012H8.25V9.501H3.013v5.343z"/></svg>
